<svg id="Capa_1" data-name="Capa 1" xmlns="http://www.w3.org/2000/svg" viewBox="0 0 378.02 378.2"><path d="M254.73,421.88c-10.62-10.42-20.2-19.65-29.6-29.06q-53-53-105.9-106.16c-13.25-13.3-13.43-32.87-.48-45.54,12.72-12.46,32-11.88,45.2,1.28Q229.38,307.74,294.85,373c1,1,2.17,2,3.9,3.62,6-6.15,11.83-12.25,17.79-18.22q58.08-58.21,116.2-116.36c12.81-12.84,32.5-13.31,44.84-1,12.78,12.74,12.77,32.27-.11,45.21q-65.09,65.34-130.23,130.61a56.67,56.67,0,0,1-5.16,4c13.87,13.79,27,26.77,40.07,39.82q47.57,47.51,95.07,95.09c12.85,12.88,13.23,32.48,1,44.85-12.68,12.8-32,13-45.18-.12q-65.52-65.25-130.8-130.74c-1.18-1.18-2.22-2.49-4.1-4.61-9.53,9.81-18.56,19.32-27.83,28.6q-53.52,53.57-107.2,107c-12.75,12.67-32.41,12.58-44.84,0-12.24-12.35-12.25-31.74.41-44.46q65.4-65.7,131.07-131.17C250.9,424,252.52,423.32,254.73,421.88Z" transform="translate(-109.13 -232.14)"/></svg>